<?xml version="1.0" encoding="utf-8"?>
<svg width="16" height="16" viewBox="0 0 16 16" xmlns="http://www.w3.org/2000/svg">
  <path fill="#fff" d="M0 10C0 7 1 2 2 2H9.5C12.5 2 15 4 15 6.5S13.5 11.5 11 11.5V16H0Z" />
  <path fill="#222" d="M2 2L9.5 2C12.5 2 15 4 15 6.5S13.5 11.5 11 11.5V16H12V12.5C14.5 12 16 9.5 16 6.5S13.5 1 9.5 1H2Z M8 11.5L8 16H9L9 11.5Z M6 16L6 11.5H5L5 16Z M2 11.5V16H3V11.5Z M9 7C9.5 7 10 6.5 10 6S9.5 5 9 5S8 5.5 8 6S8.5 7 9 7Z M11 6C11 6.5 11.5 7 12 7S13 6.5 13 6S12.5 5 12 5S11 5.5 11 6Z" />
</svg>